<svg width="100" height="100" viewBox="0 0 100 100" fill="none" xmlns="http://www.w3.org/2000/svg">
<path d="M50 0C22.3875 0 0 22.3875 0 50C0 77.6125 22.3875 100 50 100C77.6125 100 100 77.6125 100 50C100 22.3875 77.6125 0 50 0ZM75 54.1667H54.1667V75C54.1667 77.3042 52.3 79.1667 50 79.1667C47.7 79.1667 45.8333 77.3042 45.8333 75V54.1667H25C22.7 54.1667 20.8333 52.3042 20.8333 50C20.8333 47.6958 22.7 45.8333 25 45.8333H45.8333V25C45.8333 22.6958 47.7 20.8333 50 20.8333C52.3 20.8333 54.1667 22.6958 54.1667 25V45.8333H75C77.3 45.8333 79.1667 47.6958 79.1667 50C79.1667 52.3042 77.3 54.1667 75 54.1667Z" fill="#EEEEEE"/>
</svg>
