<svg width="88" height="100" viewBox="0 0 88 100" fill="none" xmlns="http://www.w3.org/2000/svg">
<path d="M6.25 90.625C6.25 93.1114 7.23772 95.496 8.99587 97.2541C10.754 99.0123 13.1386 100 15.625 100H71.875C74.3614 100 76.7459 99.0123 78.5041 97.2541C80.2622 95.496 81.25 93.1114 81.25 90.625V25H6.25V90.625ZM59.375 40.625C59.375 39.7962 59.7042 39.0014 60.2903 38.4153C60.8763 37.8293 61.6712 37.5 62.5 37.5C63.3288 37.5 64.1236 37.8293 64.7097 38.4153C65.2957 39.0014 65.625 39.7962 65.625 40.625V84.375C65.625 85.2038 65.2957 85.9987 64.7097 86.5847C64.1236 87.1708 63.3288 87.5 62.5 87.5C61.6712 87.5 60.8763 87.1708 60.2903 86.5847C59.7042 85.9987 59.375 85.2038 59.375 84.375V40.625ZM40.625 40.625C40.625 39.7962 40.9542 39.0014 41.5403 38.4153C42.1263 37.8293 42.9212 37.5 43.75 37.5C44.5788 37.5 45.3736 37.8293 45.9597 38.4153C46.5457 39.0014 46.875 39.7962 46.875 40.625V84.375C46.875 85.2038 46.5457 85.9987 45.9597 86.5847C45.3736 87.1708 44.5788 87.5 43.75 87.5C42.9212 87.5 42.1263 87.1708 41.5403 86.5847C40.9542 85.9987 40.625 85.2038 40.625 84.375V40.625ZM21.875 40.625C21.875 39.7962 22.2042 39.0014 22.7903 38.4153C23.3763 37.8293 24.1712 37.5 25 37.5C25.8288 37.5 26.6236 37.8293 27.2097 38.4153C27.7957 39.0014 28.125 39.7962 28.125 40.625V84.375C28.125 85.2038 27.7957 85.9987 27.2097 86.5847C26.6236 87.1708 25.8288 87.5 25 87.5C24.1712 87.5 23.3763 87.1708 22.7903 86.5847C22.2042 85.9987 21.875 85.2038 21.875 84.375V40.625ZM84.375 6.25003H60.9375L59.1015 2.59769C58.7126 1.81686 58.1135 1.16004 57.3717 0.701125C56.6298 0.24221 55.7746 -0.000591399 54.9023 3.42436e-05H32.5781C31.7078 -0.00331156 30.8541 0.238585 30.1148 0.69801C29.3756 1.15743 28.7808 1.8158 28.3984 2.59769L26.5625 6.25003H3.125C2.2962 6.25003 1.50134 6.57927 0.915291 7.16532C0.32924 7.75137 0 8.54623 0 9.37503L0 15.625C0 16.4538 0.32924 17.2487 0.915291 17.8347C1.50134 18.4208 2.2962 18.75 3.125 18.75H84.375C85.2038 18.75 85.9986 18.4208 86.5847 17.8347C87.1707 17.2487 87.5 16.4538 87.5 15.625V9.37503C87.5 8.54623 87.1707 7.75137 86.5847 7.16532C85.9986 6.57927 85.2038 6.25003 84.375 6.25003Z" fill="#FF6969"/>
</svg>
