<svg width="113" height="100" viewBox="0 0 113 100" fill="none" xmlns="http://www.w3.org/2000/svg">
<path d="M78.6482 16.2336L96.2688 33.8543C97.0111 34.5966 97.0111 35.8078 96.2688 36.5501L53.6042 79.2147L35.4757 81.2268C33.0533 81.5003 31.0022 79.4491 31.2756 77.0268L33.2878 58.8982L75.9523 16.2336C76.6947 15.4913 77.9058 15.4913 78.6482 16.2336ZM110.295 11.7601L100.762 2.227C97.7925 -0.742333 92.9674 -0.742333 89.9785 2.227L83.0631 9.14241C82.3208 9.88474 82.3208 11.0959 83.0631 11.8383L100.684 29.4589C101.426 30.2012 102.637 30.2012 103.38 29.4589L110.295 22.5435C113.264 19.5546 113.264 14.7294 110.295 11.7601ZM75.0147 67.6109V87.4976H12.5024V24.9853H57.394C58.0191 24.9853 58.6052 24.7314 59.0545 24.3016L66.8685 16.4876C68.3532 15.0029 67.2983 12.4829 65.208 12.4829H9.37683C4.20004 12.4829 0 16.6829 0 21.8597V90.6232C0 95.8 4.20004 100 9.37683 100H78.1403C83.3171 100 87.5171 95.8 87.5171 90.6232V59.7968C87.5171 57.7066 84.9971 56.6712 83.5124 58.1364L75.6984 65.9504C75.2686 66.3997 75.0147 66.9857 75.0147 67.6109Z" fill="#EEEEEE"/>
</svg>
