<svg width="125" height="100" viewBox="0 0 125 100" fill="none" xmlns="http://www.w3.org/2000/svg">
<path d="M121.875 87.5H106.25V22.1581C106.25 16.8338 102.045 12.4998 96.8752 12.4998H75.0001V24.9999H93.7502V100H121.875C123.602 100 125 98.6016 125 96.875V90.625C125 88.8984 123.602 87.5 121.875 87.5ZM60.9845 0.197076L23.4844 9.91194C20.7012 10.6326 18.75 13.2225 18.75 16.1952V87.5H3.12501C1.39844 87.5 0 88.8984 0 90.625V96.875C0 98.6016 1.39844 100 3.12501 100H68.7501V6.48029C68.7501 2.26544 64.9298 -0.826364 60.9845 0.197076ZM51.5626 56.2499C48.9747 56.2499 46.8751 53.4511 46.8751 49.9999C46.8751 46.5487 48.9747 43.7499 51.5626 43.7499C54.1505 43.7499 56.2501 46.5487 56.2501 49.9999C56.2501 53.4511 54.1505 56.2499 51.5626 56.2499Z" fill="#EEEEEE"/>
</svg>
