<svg width="100" height="100" viewBox="0 0 100 100" fill="none" xmlns="http://www.w3.org/2000/svg">
<path d="M50 0C22.3875 0 0 22.3875 0 50C0 77.6125 22.3875 100 50 100C77.6125 100 100 77.6125 100 50C100 22.3875 77.6125 0 50 0ZM55.8917 50C55.8917 50 68.9708 63.0792 69.6125 63.7208C71.2417 65.35 71.2417 67.9875 69.6125 69.6125C67.9833 71.2417 65.3458 71.2417 63.7208 69.6125C63.0792 68.975 50 55.8917 50 55.8917C50 55.8917 36.9208 68.9708 36.2792 69.6125C34.65 71.2417 32.0125 71.2417 30.3875 69.6125C28.7583 67.9833 28.7583 65.3458 30.3875 63.7208C31.025 63.0792 44.1083 50 44.1083 50C44.1083 50 31.0292 36.9208 30.3875 36.2792C28.7583 34.65 28.7583 32.0125 30.3875 30.3875C32.0167 28.7583 34.6542 28.7583 36.2792 30.3875C36.9208 31.025 50 44.1083 50 44.1083C50 44.1083 63.0792 31.0292 63.7208 30.3875C65.35 28.7583 67.9875 28.7583 69.6125 30.3875C71.2417 32.0167 71.2417 34.6542 69.6125 36.2792C68.975 36.9208 55.8917 50 55.8917 50Z" fill="#EEEEEE"/>
</svg>
