<svg width="100" height="23" viewBox="0 0 100 23" fill="none" xmlns="http://www.w3.org/2000/svg">
<path d="M22.7273 11.3636C22.7273 17.6396 17.6396 22.7273 11.3636 22.7273C5.08767 22.7273 0 17.6396 0 11.3636C0 5.08767 5.08767 0 11.3636 0C17.6396 0 22.7273 5.08767 22.7273 11.3636Z" fill="#EEEEEE"/>
<path d="M61.3636 11.3636C61.3636 17.6396 56.276 22.7273 50 22.7273C43.724 22.7273 38.6364 17.6396 38.6364 11.3636C38.6364 5.08767 43.724 0 50 0C56.276 0 61.3636 5.08767 61.3636 11.3636Z" fill="#EEEEEE"/>
<path d="M100 11.3636C100 17.6396 94.9123 22.7273 88.6364 22.7273C82.3604 22.7273 77.2727 17.6396 77.2727 11.3636C77.2727 5.08767 82.3604 0 88.6364 0C94.9123 0 100 5.08767 100 11.3636Z" fill="#EEEEEE"/>
</svg>
