<svg width="100" height="100" viewBox="0 0 100 100" fill="none" xmlns="http://www.w3.org/2000/svg">
<path d="M96.8618 21.8618L78.1382 3.13817C76.1289 1.12885 73.4037 1.48588e-05 70.5621 0H10.7143C4.79688 0 0 4.79688 0 10.7143V89.2857C0 95.2031 4.79688 100 10.7143 100H89.2857C95.2031 100 100 95.2031 100 89.2857V29.4379C100 26.5963 98.8712 23.8711 96.8618 21.8618ZM50 85.7143C42.1103 85.7143 35.7143 79.3183 35.7143 71.4286C35.7143 63.5388 42.1103 57.1429 50 57.1429C57.8897 57.1429 64.2857 63.5388 64.2857 71.4286C64.2857 79.3183 57.8897 85.7143 50 85.7143ZM71.4286 17.7411V40.1786C71.4286 41.6578 70.2292 42.8571 68.75 42.8571H16.9643C15.485 42.8571 14.2857 41.6578 14.2857 40.1786V16.9643C14.2857 15.485 15.485 14.2857 16.9643 14.2857H67.9732C68.6837 14.2857 69.365 14.5679 69.8672 15.0703L70.644 15.8471C70.8927 16.0958 71.0901 16.3911 71.2247 16.716C71.3593 17.041 71.4286 17.3893 71.4286 17.7411Z" fill="#EEEEEE"/>
</svg>
