<svg width="100" height="100" viewBox="0 0 100 100" fill="none" xmlns="http://www.w3.org/2000/svg">
<path d="M50 0C47.8769 0 46.1538 1.72308 46.1538 3.84615V4.50721C46.1538 6.34567 44.8593 7.98594 43.0439 8.27824C42.1631 8.42055 41.2912 8.5854 40.4297 8.78155C38.6451 9.18924 36.8403 8.17885 36.1403 6.49038L35.8849 5.88942C35.0734 3.92788 32.8248 2.99321 30.8594 3.80859C28.8978 4.62013 27.9632 6.86875 28.7785 8.83413L29.034 9.45012C29.7416 11.1424 29.1757 13.1459 27.6142 14.1151C26.8603 14.5843 26.1249 15.0759 25.4056 15.5874C23.9133 16.6528 21.849 16.4103 20.5529 15.1142L20.0871 14.6484C18.5833 13.1446 16.1484 13.1446 14.6484 14.6484C13.1484 16.1523 13.1484 18.5871 14.6484 20.0871L15.1142 20.5529C16.4103 21.849 16.6528 23.9095 15.5874 25.4056C15.0759 26.1249 14.5843 26.8603 14.1151 27.6142C13.1459 29.1757 11.1388 29.7453 9.44261 29.0415L8.83413 28.7861C6.8726 27.9745 4.61647 28.9053 3.80108 30.8669C2.98954 32.8284 3.92037 35.077 5.88191 35.8924L6.48287 36.1403C8.17133 36.8403 9.18924 38.6451 8.78155 40.4297C8.5854 41.2912 8.41304 42.1631 8.27073 43.0439C7.98227 44.8554 6.34567 46.1538 4.50721 46.1538H3.84615C1.72308 46.1538 0 47.8769 0 50C0 52.1231 1.72308 53.8462 3.84615 53.8462H4.50721C6.34567 53.8462 7.98594 55.1407 8.27824 56.9561C8.42055 57.8369 8.5854 58.7088 8.78155 59.5703C9.18924 61.3549 8.17885 63.1597 6.49038 63.8597L5.88942 64.1151C3.92788 64.9266 2.99321 67.1752 3.80859 69.1406C4.62013 71.1022 6.86875 72.0368 8.83413 71.2215L9.45012 70.966C11.1463 70.2622 13.1495 70.8281 14.1226 72.3858C14.5918 73.1397 15.0796 73.8788 15.595 74.6019C16.6603 76.0942 16.4178 78.1585 15.1217 79.4546L14.6484 79.9204C13.1446 81.4242 13.1446 83.8591 14.6484 85.3591C16.1523 86.8591 18.5871 86.8629 20.0871 85.3591L20.5604 84.8933C21.8566 83.5972 23.9133 83.3472 25.4056 84.4126C26.1287 84.9279 26.8678 85.4232 27.6217 85.8924C29.1794 86.8617 29.7528 88.8687 29.049 90.5649L28.7936 91.1734C27.982 93.1349 28.9129 95.391 30.8744 96.2064C32.8359 97.018 35.0846 96.0871 35.8999 94.1256L36.1478 93.5246C36.8478 91.8362 38.6526 90.8183 40.4372 91.226C41.2987 91.4221 42.1706 91.5945 43.0514 91.7368C44.8552 92.0175 46.1538 93.6543 46.1538 95.4928V96.1538C46.1538 98.2769 47.8769 100 50 100C52.1231 100 53.8462 98.2769 53.8462 96.1538V95.4928C53.8462 93.6543 55.1407 92.0141 56.9561 91.7218C57.8369 91.5794 58.7088 91.4146 59.5703 91.2184C61.3549 90.8108 63.1597 91.8212 63.8597 93.5096L64.1151 94.1106C64.9266 96.0721 67.1752 97.0068 69.1406 96.1914C71.1022 95.3799 72.0368 93.1312 71.2215 91.1659L70.966 90.5499C70.2622 88.8537 70.8281 86.8505 72.3858 85.8774C73.1397 85.4082 73.8788 84.9204 74.6019 84.405C76.0942 83.3397 78.1585 83.5821 79.4546 84.8783L79.9204 85.3516C81.4242 86.8554 83.8591 86.8554 85.3591 85.3516C86.8591 83.8477 86.8629 81.4129 85.3591 79.9129L84.8933 79.4396C83.5972 78.1434 83.3472 76.0867 84.4126 74.5943C84.9279 73.8713 85.4232 73.1321 85.8924 72.3783C86.8617 70.8206 88.8687 70.2472 90.5649 70.951L91.1734 71.2064C93.1349 72.018 95.391 71.0871 96.2064 69.1256C97.018 67.1641 96.0871 64.9154 94.1256 64.1001L93.5246 63.8522C91.8362 63.1522 90.8183 61.3474 91.226 59.5628C91.4221 58.7013 91.5945 57.8294 91.7368 56.9486C92.0175 55.1448 93.6543 53.8462 95.4928 53.8462H96.1538C98.2769 53.8462 100 52.1231 100 50C100 47.8769 98.2769 46.1538 96.1538 46.1538H95.4928C93.6543 46.1538 92.0141 44.8593 91.7218 43.0439C91.5794 42.1631 91.4146 41.2912 91.2184 40.4297C90.8108 38.6451 91.8212 36.8403 93.5096 36.1403L94.1106 35.8849C96.0721 35.0734 97.0068 32.8248 96.1914 30.8594C95.3799 28.8978 93.1312 27.9632 91.1659 28.7785L90.5499 29.034C88.8537 29.7378 86.8505 29.1719 85.8774 27.6142C85.4082 26.8603 84.9204 26.1212 84.405 25.3981C83.3397 23.9058 83.5821 21.8415 84.8783 20.5454L85.3516 20.0796C86.8554 18.5758 86.8554 16.1409 85.3516 14.6409C83.8477 13.1371 81.4129 13.1371 79.9129 14.6409L79.4471 15.1142C78.151 16.4103 76.0867 16.6603 74.5943 15.595C73.8713 15.0796 73.1321 14.5843 72.3783 14.1151C70.8206 13.1459 70.2547 11.1388 70.9585 9.44261L71.2139 8.83413C72.0255 6.8726 71.0947 4.61647 69.1331 3.80108C67.1716 2.98954 64.923 3.92037 64.1076 5.88191L63.8522 6.48287C63.1522 8.17133 61.3474 9.18924 59.5628 8.78155C58.7013 8.5854 57.8294 8.41304 56.9486 8.27073C55.1409 7.98227 53.8462 6.34567 53.8462 4.50721V3.84615C53.8462 1.72308 52.1231 0 50 0ZM50 19.2308C65.6871 19.2308 78.6099 30.9803 80.5063 46.1538H56.6481C55.9741 44.9865 55.0052 44.0167 53.8384 43.3417C52.6717 42.6666 51.348 42.3101 50 42.3077C49.9975 42.3077 49.995 42.3077 49.9925 42.3077L38.0634 21.6346C41.7346 20.0874 45.7662 19.2308 50 19.2308ZM31.4228 25.5108L43.3443 46.1538C42.6671 47.3226 42.3095 48.6492 42.3077 50C42.3122 51.3457 42.6696 52.6668 43.3443 53.8311L31.4153 74.4817C24.0247 68.8615 19.2308 60.0003 19.2308 50C19.2308 39.9959 24.0274 31.1306 31.4228 25.5108ZM56.6556 53.8462H80.5063C78.6099 69.0197 65.6871 80.7692 50 80.7692C45.7662 80.7692 41.7346 79.9126 38.0634 78.3654L49.9925 57.6923C49.995 57.6923 49.9975 57.6923 50 57.6923C51.3492 57.6912 52.6745 57.3353 53.8427 56.6602C55.0109 55.9851 55.981 55.0146 56.6556 53.8462Z" fill="#EEEEEE"/>
</svg>
